<svg width="20" height="20" viewBox="0 0 20 20" fill="none" xmlns="http://www.w3.org/2000/svg">
<path d="M20 2.85721H18.5716V1.42885H17.1428V0H2.8572V1.42885H1.42835V2.85721H0V17.1428H1.42835V18.5716H2.8572V20H17.1428V18.5716H18.5716V17.1428H20V2.85721Z" fill="#361B71"/>
<path d="M17.143 2.85724H2.85742V17.1428H17.143V2.85724Z" fill="#8E64E6"/>
<path d="M17.143 1.42883H2.85742V2.8572H17.143V1.42883Z" fill="#BA9CFA"/>
<path d="M18.5724 2.85718H17.1436V15.7144H18.5724V2.85718Z" fill="#BA9CFA"/>
<path d="M2.85756 2.85718H1.42871V4.28603H2.85756V2.85718Z" fill="#BA9CFA"/>
<path d="M18.5724 15.7144H17.1436V17.1428H18.5724V15.7144Z" fill="#6A41C0"/>
<path d="M2.85756 4.28607H1.42871V17.1428H2.85756V4.28607Z" fill="#6A41C0"/>
<path d="M17.143 17.1428H2.85742V18.5717H17.143V17.1428Z" fill="#6A41C0"/>
<path d="M17.1427 2.85724H15.7139V4.28609H17.1427V2.85724Z" fill="white"/>
<path d="M18.5714 4.28607H17.1426V7.1428H18.5714V4.28607Z" fill="white"/>
</svg>
