<svg width="1948" height="302" viewBox="0 0 1948 302" fill="none" xmlns="http://www.w3.org/2000/svg">
<path opacity="0.8" d="M807.495 45.1606V0.0696716H759.354H711.214H663.073H614.933H566.792H518.651V45.1606H470.511V90.2515H518.651H566.792H614.933H663.073V45.1606H711.214H759.354H807.495Z" fill="#DEEBE9"/>
<path opacity="0.8" d="M96.9963 110.775H48.8557H0.715088V155.866H48.8557H96.9963H145.137H193.278V110.775H145.137H96.9963Z" fill="#DEEBE9"/>
<path opacity="0.8" d="M1255.84 193.182H1303.98H1352.13V148.091H1303.98V103H1255.84H1207.7H1159.56H1111.42H1063.28V148.091H1015.14H967V193.182H1015.14H1063.28H1111.42H1159.56H1207.7H1255.84Z" fill="#DEEBE9"/>
<path opacity="0.8" d="M1948 210.995H1899.86H1851.72H1803.58V256.086H1755.44V301.177H1803.58H1851.72H1899.86H1948V256.086V210.995Z" fill="#DEEBE9"/>
<path opacity="0.8" d="M1562.66 256.086H1514.52H1466.38V301.177H1514.52H1562.66H1610.8H1658.94V256.086H1610.8H1562.66Z" fill="#DEEBE9"/>
</svg>
