<svg width="2055" height="1119" viewBox="0 0 2055 1119" fill="none" xmlns="http://www.w3.org/2000/svg">
<path d="M2054 0H0V1119H2054V0Z" fill="url(#paint0_linear_145_684)"/>
<path opacity="0.8" d="M913.78 175.091V130H865.639H817.499H769.358H721.218H673.077H624.936V175.091H576.796V220.182H624.936H673.077H721.218H769.358V175.091H817.499H865.639H913.78Z" fill="#DEEBE9"/>
<path opacity="0.8" d="M203.281 240.705H155.141H107V285.796H155.141H203.281H251.422H299.563V240.705H251.422H203.281Z" fill="#DEEBE9"/>
<path opacity="0.8" d="M1362.13 323.112H1410.27H1458.41V278.021H1410.27V232.93H1362.13H1313.99H1265.85H1217.71H1169.57V278.021H1121.43H1073.28V323.112H1121.43H1169.57H1217.71H1265.85H1313.99H1362.13Z" fill="#DEEBE9"/>
<path opacity="0.8" d="M2054.28 340.925H2006.14H1958H1909.86V386.016H1861.72V431.107H1909.86H1958H2006.14H2054.28V386.016V340.925Z" fill="#DEEBE9"/>
<path opacity="0.8" d="M1668.95 386.016H1620.81H1572.66V431.107H1620.81H1668.95H1717.09H1765.23V386.016H1717.09H1668.95Z" fill="#DEEBE9"/>
<defs>
<linearGradient id="paint0_linear_145_684" x1="950.05" y1="1003.69" x2="1365.82" y2="-709.383" gradientUnits="userSpaceOnUse">
<stop stop-color="white"/>
<stop offset="0.594521" stop-color="#EFFAFF"/>
<stop offset="1" stop-color="#B3DBEC"/>
</linearGradient>
</defs>
</svg>
