<svg width="2054" height="1120" viewBox="0 0 2054 1120" fill="none" xmlns="http://www.w3.org/2000/svg">
<path d="M2054 0H0V1119H2054V0Z" fill="url(#paint0_linear_146_685)"/>
<path d="M1848.6 1008.11L1889.68 1030.32V985.892L1848.6 963.678V1008.11Z" fill="#736357"/>
<path d="M1971.84 897.032V897.031V763.74L1930.76 741.526V963.678L1971.84 941.462L2012.92 963.678V963.677V919.247L1971.84 897.032Z" fill="#736357"/>
<path d="M1930.76 1052.54V1119.18H1971.84V1030.32V985.892L1930.76 963.678V1008.11V1052.54Z" fill="#736357"/>
<path d="M1766.44 963.678L1725.36 941.462V985.892L1766.44 1008.11V963.678Z" fill="#736357"/>
<path d="M1684.28 1052.54L1725.36 1074.75V1030.32L1684.28 1008.11V1052.54Z" fill="#736357"/>
<path d="M1437.8 919.247V963.678L1478.88 985.892L1519.96 1008.11V963.678L1478.88 941.462L1437.8 919.247Z" fill="#736357"/>
<path d="M1848.6 1096.97V1119.18H1889.68V1074.75L1848.6 1052.54V1096.97Z" fill="#736357"/>
<path d="M1766.44 1096.97L1807.52 1119.18V1074.75L1766.44 1052.54V1096.97Z" fill="#736357"/>
<path d="M1602.12 963.678V1052.54L1643.2 1074.75V985.892L1602.12 963.678Z" fill="#736357"/>
<path d="M1643.2 1119.18H1684.28V1096.97L1643.2 1074.75V1119.18Z" fill="#736357"/>
<path d="M1437.8 1052.54L1478.88 1074.75V1030.32L1437.8 1008.11V1052.54Z" fill="#736357"/>
<path d="M1437.8 1119.18H1478.88L1437.8 1096.97V1119.18Z" fill="#736357"/>
<path d="M1314.56 985.892L1355.64 1008.11V963.678L1314.56 941.462V985.892Z" fill="#736357"/>
<path d="M1314.56 1074.75L1355.64 1096.97V1052.54L1314.56 1030.32V1074.75Z" fill="#736357"/>
<path d="M1191.32 919.247L1232.4 941.462V897.032L1191.32 874.816V919.247Z" fill="#736357"/>
<path d="M1109.16 963.678V1008.11L1150.24 1030.32V985.892L1109.16 963.678Z" fill="#736357"/>
<path d="M1150.24 1074.75L1191.32 1096.97V1052.54L1150.24 1030.32V1074.75Z" fill="#736357"/>
<path d="M1109.16 1119.18H1150.24L1109.16 1096.97V1119.18Z" fill="#736357"/>
<path d="M1027 1119.18H1068.08V1074.75L1027 1052.54V1119.18Z" fill="#736357"/>
<path d="M944.84 1052.54L985.92 1074.75V985.892L944.84 963.678V1052.54Z" fill="#736357"/>
<path d="M903.76 985.892L862.68 963.678V1008.11L821.6 985.892V941.462L780.52 919.247V1052.54L821.6 1074.75V1119.18H862.68H903.76H944.84V1096.97L903.76 1074.75V985.892Z" fill="#736357"/>
<path d="M698.36 874.816L739.44 897.032V852.602L698.36 830.387V874.816Z" fill="#736357"/>
<path d="M698.361 919.247L657.281 897.032V1030.32L698.361 1052.54V919.247Z" fill="#736357"/>
<path d="M698.36 1119.18H739.44L698.36 1096.97V1119.18Z" fill="#736357"/>
<path d="M492.96 897.032L534.04 919.247V874.816L492.96 852.602V897.032Z" fill="#736357"/>
<path d="M451.879 874.816L410.799 852.602V897.032L451.879 919.247V874.816Z" fill="#736357"/>
<path d="M534.04 1052.54V1008.11L492.96 985.892V941.462L451.88 919.247V1096.97L492.96 1119.18H534.04H575.12L534.04 1096.97V1052.54Z" fill="#736357"/>
<path d="M82.16 363.87V408.301L123.24 430.515V386.086L82.16 363.87Z" fill="#736357"/>
<path d="M123.24 430.515V474.946L164.32 497.161L205.4 519.376V474.946L164.32 452.731L123.24 430.515Z" fill="#736357"/>
<path d="M369.72 874.816L328.64 852.602L287.56 830.387V874.816L328.64 897.032V941.462L369.72 963.678V1119.18H410.8V941.462L369.72 919.247V874.816Z" fill="#736357"/>
<path d="M82.16 630.452L123.24 652.666V741.526L164.32 763.741V541.59L123.24 519.376L82.16 497.161V452.731L41.08 430.515V386.086L0 363.87V497.161V674.881L41.08 652.666L82.16 630.452Z" fill="#736357"/>
<path d="M246.48 897.032V941.462L287.56 963.678V919.247L246.48 897.032Z" fill="#736357"/>
<path d="M287.56 1119.18H328.64V1074.75V985.892L287.56 963.678V1119.18Z" fill="#736357"/>
<path d="M164.32 808.171L123.24 785.956V919.247L164.32 897.032L205.4 919.247V874.816L164.32 852.602V808.171Z" fill="#736357"/>
<path d="M41.08 785.956V697.097L0 674.881V808.171L41.08 785.956Z" fill="#736357"/>
<path d="M164.32 985.892V941.462L123.24 919.247V963.678L164.32 985.892Z" fill="#736357"/>
<path d="M164.32 1119.18H205.4V1052.54V1008.11L164.32 985.892V1030.32V1119.18Z" fill="#736357"/>
<path d="M41.08 919.247V830.387L0 808.171V941.462L41.08 919.247Z" fill="#736357"/>
<path d="M0 1119.18H41.08H82.16V1030.32L41.08 1008.11V963.678L0 941.462V1030.32V1119.18Z" fill="#736357"/>
<path d="M1807.52 985.892L1848.6 963.678L1807.52 941.462V985.892Z" fill="#8CC63F"/>
<path d="M1848.6 963.678L1889.68 985.892L1930.76 963.678L1889.68 941.462L1848.6 963.678Z" fill="#8CC63F"/>
<path d="M1971.84 763.74L2012.92 741.526L1971.84 719.312L1930.76 741.526L1971.84 763.74Z" fill="#8CC63F"/>
<path d="M1848.6 1008.11L1807.52 1030.32L1766.44 1052.54L1807.52 1074.75L1848.6 1052.54L1889.68 1074.75L1930.76 1052.54L1889.68 1030.32L1848.6 1008.11Z" fill="#1F7138"/>
<path d="M1725.36 941.462L1766.44 963.678L1807.52 941.462L1766.44 919.247L1725.36 941.462Z" fill="#1F7138"/>
<path d="M1643.2 941.462L1602.12 963.678L1643.2 985.892L1684.28 963.678L1725.36 941.462L1684.28 919.247L1643.2 941.462Z" fill="#1F7138"/>
<path d="M1766.44 1008.11L1725.36 985.892L1684.28 1008.11L1725.36 1030.32L1766.44 1008.11Z" fill="#1F7138"/>
<path d="M1396.72 897.032L1437.8 874.816L1396.72 852.602L1355.64 874.816L1314.56 897.032L1273.48 874.816V919.247V963.678L1314.56 941.462L1355.64 963.678L1396.72 941.462L1355.64 919.247L1396.72 897.032Z" fill="#1F7138"/>
<path d="M1478.88 897.032L1437.8 919.247L1478.88 941.462L1519.96 963.678L1561.04 941.462L1519.96 919.247L1478.88 897.032Z" fill="#8CC63F"/>
<path d="M1396.72 941.462V985.892L1437.8 963.678L1396.72 941.462Z" fill="#8CC63F"/>
<path d="M1561.04 985.892L1602.12 963.678L1561.04 941.462V985.892Z" fill="#8CC63F"/>
<path d="M1725.36 1119.18H1766.44H1807.52L1766.44 1096.97L1725.36 1119.18Z" fill="#8CC63F"/>
<path d="M1684.28 1052.54L1643.2 1074.75L1684.28 1096.97L1725.36 1074.75L1684.28 1052.54Z" fill="#8CC63F"/>
<path d="M1561.04 1074.75V1119.18L1602.12 1096.97L1643.2 1074.75L1602.12 1052.54L1561.04 1074.75Z" fill="#1F7138"/>
<path d="M1478.88 1030.32L1519.96 1008.11L1478.88 985.892L1437.8 963.678V1008.11L1478.88 1030.32Z" fill="#8CC63F"/>
<path d="M1561.04 1074.75L1519.96 1052.54L1478.88 1074.75L1437.8 1052.54V1096.97L1478.88 1119.18H1519.96H1561.04L1519.96 1096.97L1561.04 1074.75Z" fill="#1F7138"/>
<path d="M1355.64 1052.54L1396.72 1030.32L1437.8 1008.11L1396.72 985.892L1355.64 1008.11L1314.56 985.892V1030.32L1355.64 1052.54Z" fill="#8CC63F"/>
<path d="M1355.64 1096.97L1314.56 1074.75V1119.18H1355.64H1396.72L1437.8 1096.97L1396.72 1074.75L1355.64 1096.97Z" fill="#8CC63F"/>
<path d="M1191.32 830.387L1150.24 852.602L985.92 941.462L944.84 919.247L903.76 941.462L862.68 963.678L903.76 985.892L944.84 963.678L985.92 985.892L1027 963.678L1109.16 919.247L1150.24 897.032L1191.32 874.816L1232.4 897.032L1273.48 874.816L1232.4 852.602L1191.32 830.387Z" fill="#1F7138"/>
<path d="M1273.48 1052.54L1232.4 1074.75L1191.32 1096.97L1150.24 1074.75L1109.16 1096.97L1150.24 1119.18H1191.32H1232.4L1273.48 1096.97L1314.56 1074.75L1273.48 1052.54Z" fill="#1F7138"/>
<path d="M1191.32 963.678L1232.4 941.462L1191.32 919.247L1150.24 941.462L1109.16 963.678L1150.24 985.892L1191.32 963.678Z" fill="#1F7138"/>
<path d="M1232.4 1030.32L1273.48 1008.11L1314.56 985.892L1273.48 963.678L1232.4 985.892L1191.32 1008.11L1150.24 1030.32L1191.32 1052.54L1232.4 1030.32Z" fill="#1F7138"/>
<path d="M1150.24 1030.32L1109.16 1008.11L1068.08 1030.32L1027 1052.54L1068.08 1074.75L1109.16 1052.54L1150.24 1030.32Z" fill="#8CC63F"/>
<path d="M821.6 941.462L862.68 919.247L821.6 897.032L780.52 919.247L821.6 941.462Z" fill="#8CC63F"/>
<path d="M862.68 1008.11V963.678L821.6 985.892L862.68 1008.11Z" fill="#8CC63F"/>
<path d="M780.52 830.387L739.44 808.171L698.36 830.387L739.44 852.602L780.52 830.387Z" fill="#8CC63F"/>
<path d="M739.44 1074.75L698.36 1096.97L739.44 1119.18L780.52 1096.97L821.6 1074.75L780.52 1052.54L739.44 1074.75Z" fill="#8CC63F"/>
<path d="M903.76 1074.75L944.84 1096.97L985.92 1074.75L944.84 1052.54L903.76 1074.75Z" fill="#8CC63F"/>
<path d="M657.281 897.032L698.361 919.247L739.441 897.032L698.361 874.816L657.281 897.032Z" fill="#8CC63F"/>
<path d="M698.361 1052.54L657.281 1030.32V1074.75L698.361 1052.54Z" fill="#8CC63F"/>
<path d="M616.2 874.816L657.28 852.602L698.36 830.387L657.28 808.171L616.2 830.387L575.12 852.602V897.032L616.2 874.816Z" fill="#8CC63F"/>
<path d="M575.12 1030.32V1074.75L616.2 1052.54L657.28 1030.32L616.2 1008.11L575.12 1030.32Z" fill="#1F7138"/>
<path d="M657.281 1119.18L616.201 1096.97V1119.18H657.281Z" fill="#8CC63F"/>
<path d="M492.959 852.602L534.04 874.816L575.119 852.602L534.04 830.387L492.959 808.171L451.879 830.387L410.799 852.602L451.879 874.816L492.959 852.602Z" fill="#8CC63F"/>
<path d="M492.96 941.462L534.04 919.247L492.96 897.032L451.88 919.247L492.96 941.462Z" fill="#1F7138"/>
<path d="M575.12 985.892L534.04 963.678L492.96 985.892L534.04 1008.11L575.12 985.892Z" fill="#1F7138"/>
<path d="M575.12 1119.18L616.2 1096.97L575.12 1074.75L534.04 1096.97L575.12 1119.18Z" fill="#8CC63F"/>
<path d="M123.24 341.656V341.655L82.16 363.87L123.24 386.086L164.32 363.87L123.24 341.655V341.656Z" fill="#8CC63F"/>
<path d="M246.48 452.731L205.4 430.515L164.32 408.301L123.24 430.515L164.32 452.731L205.4 474.946L246.48 452.731Z" fill="#8CC63F"/>
<path d="M369.72 874.816L410.8 852.602L369.72 830.387L328.64 808.171L287.56 830.387L328.64 852.602L369.72 874.816Z" fill="#1F7138"/>
<path d="M451.88 919.247L410.8 897.032L369.72 919.247L410.8 941.462L451.88 919.247Z" fill="#1F7138"/>
<path d="M451.879 1096.97L410.799 1119.18H451.879H492.959L451.879 1096.97Z" fill="#8CC63F"/>
<path d="M82.16 363.87L41.08 341.655L0 363.87L41.08 386.086L82.16 363.87Z" fill="#8CC63F"/>
<path d="M41.0798 430.515L82.1598 452.731L123.24 430.515L82.1598 408.301L41.0798 430.515Z" fill="#8CC63F"/>
<path d="M123.24 474.946L82.16 497.161L123.24 519.376L164.32 541.59L205.4 519.376L164.32 497.161L123.24 474.946Z" fill="#8CC63F"/>
<path d="M246.48 897.031V897.032L287.56 919.247L328.64 897.032L287.56 874.816L246.48 897.031Z" fill="#8CC63F"/>
<path d="M287.56 963.678L328.64 985.892L369.72 963.678L328.64 941.462L287.56 963.678Z" fill="#1F7138"/>
<path d="M205.4 830.387L164.32 852.602L205.4 874.816L246.48 852.602L287.56 830.387L246.48 808.171L205.4 830.387Z" fill="#8CC63F"/>
<path d="M246.48 941.462L205.4 963.678L164.32 985.892L205.4 1008.11L246.48 985.892L287.56 963.678L246.48 941.462Z" fill="#1F7138"/>
<path d="M82.16 674.881L123.24 652.666L82.16 630.452L41.08 652.666L0 674.881L41.08 697.097L82.16 674.881Z" fill="#8CC63F"/>
<path d="M123.24 919.247L164.32 941.462L205.4 919.247L164.32 897.032L123.24 919.247Z" fill="#8CC63F"/>
<path d="M82.16 808.171L123.24 785.956L164.32 808.171L205.4 785.956L246.48 763.741L205.4 741.526L164.32 763.741L123.24 741.526L82.16 763.741L41.08 785.956L0 808.171L41.08 830.387L82.16 808.171Z" fill="#8CC63F"/>
<path d="M82.1598 985.892L41.0798 1008.11L82.1598 1030.32L123.24 1008.11L164.32 985.892L123.24 963.678L82.1598 985.892Z" fill="#1F7138"/>
<path d="M82.16 941.462L41.08 919.247L0 941.462L41.08 963.678L82.16 941.462Z" fill="#8CC63F"/>
<path d="M1971.84 941.462L1930.76 963.678L1971.84 985.892L2012.92 963.678L1971.84 941.462Z" fill="#1F7138"/>
<path d="M2012.92 874.816L1971.84 897.031V897.032L2012.92 919.247L2054 897.032L2012.92 874.816Z" fill="#8CC63F"/>
<path d="M1889.68 1030.32L1930.76 1052.54V1008.11V963.678L1889.68 985.892V1030.32Z" fill="#534741"/>
<path d="M2012.92 874.816V741.526L1971.84 763.74V897.031L2012.92 874.816Z" fill="#534741"/>
<path d="M1807.52 941.462L1766.44 963.678V1008.11L1725.36 1030.32V1074.75L1684.28 1096.97V1119.18H1725.36L1766.44 1096.97V1052.54L1807.52 1030.32L1848.6 1008.11V963.678L1807.52 985.892V941.462Z" fill="#534741"/>
<path d="M1355.64 919.247L1396.72 941.462L1437.8 963.678V919.247V874.816L1396.72 897.032L1355.64 919.247Z" fill="#534741"/>
<path d="M1437.8 1008.11V963.678L1396.72 985.892L1437.8 1008.11Z" fill="#534741"/>
<path d="M1602.12 963.678L1561.04 985.892V941.462L1519.96 963.678V1008.11L1478.88 1030.32V1074.75L1519.96 1052.54L1561.04 1074.75L1602.12 1052.54V963.678Z" fill="#534741"/>
<path d="M1889.68 1119.18H1930.76V1052.54L1889.68 1074.75V1119.18Z" fill="#534741"/>
<path d="M1807.52 1119.18H1848.6V1096.97V1052.54L1807.52 1074.75V1119.18Z" fill="#534741"/>
<path d="M1684.28 1008.11L1725.36 985.892V941.462L1684.28 963.678L1643.2 985.892V1074.75L1684.28 1052.54V1008.11Z" fill="#534741"/>
<path d="M1561.04 1119.18H1602.12H1643.2V1074.75L1602.12 1096.97L1561.04 1119.18Z" fill="#534741"/>
<path d="M1519.96 1096.97L1561.04 1119.18V1074.75L1519.96 1096.97Z" fill="#534741"/>
<path d="M1355.64 963.678V1008.11L1396.72 985.892V941.462L1355.64 963.678Z" fill="#534741"/>
<path d="M1355.64 1052.54V1096.97L1396.72 1074.75L1437.8 1096.97V1052.54V1008.11L1396.72 1030.32L1355.64 1052.54Z" fill="#534741"/>
<path d="M1437.8 1119.18V1096.97L1396.72 1119.18H1437.8Z" fill="#534741"/>
<path d="M1273.48 919.247V874.816L1232.4 897.032V941.462L1191.32 963.678L1150.24 985.892V1030.32L1191.32 1008.11L1232.4 985.892L1273.48 963.678L1314.56 985.892V941.462L1273.48 963.678V919.247Z" fill="#534741"/>
<path d="M1273.48 1008.11L1232.4 1030.32L1191.32 1052.54V1096.97L1232.4 1074.75L1273.48 1052.54L1314.56 1074.75V1030.32V985.892L1273.48 1008.11Z" fill="#534741"/>
<path d="M1273.48 1096.97L1232.4 1119.18H1273.48H1314.56V1074.75L1273.48 1096.97Z" fill="#534741"/>
<path d="M780.52 1052.54V919.247V830.387L739.44 852.602V897.032L698.36 919.247V1052.54L657.28 1074.75V1030.32L616.2 1052.54L575.12 1074.75L616.2 1096.97L657.28 1119.18H698.36V1096.97L739.44 1074.75L780.52 1052.54Z" fill="#534741"/>
<path d="M1109.16 1008.11V963.678L1150.24 941.462L1191.32 919.247V874.816L1150.24 897.032L1027 963.678L985.92 985.892V1074.75L944.84 1096.97V1119.18H985.92H1027V1052.54L1068.08 1030.32L1109.16 1008.11Z" fill="#534741"/>
<path d="M1068.08 1074.75V1119.18H1109.16V1096.97L1150.24 1074.75V1030.32L1109.16 1052.54L1068.08 1074.75Z" fill="#534741"/>
<path d="M821.6 985.892L862.68 963.678V919.247L821.6 941.462V985.892Z" fill="#534741"/>
<path d="M944.84 963.678L903.76 985.892V1074.75L944.84 1052.54V963.678Z" fill="#534741"/>
<path d="M739.44 1119.18H780.52H821.6V1074.75L780.52 1096.97L739.44 1119.18Z" fill="#534741"/>
<path d="M205.4 519.376L164.32 541.59V763.741L205.4 741.526V608.236L246.48 586.021V497.161V452.731L205.4 474.946V519.376Z" fill="#534741"/>
<path d="M616.2 1008.11L657.28 1030.32V897.032L698.36 874.816V830.387L657.28 852.602L616.2 874.816L575.12 897.032V852.602L534.04 874.816V919.247L492.96 941.462V985.892L534.04 963.678L575.12 985.892L534.04 1008.11V1052.54V1096.97L575.12 1074.75V1030.32L616.2 1008.11Z" fill="#534741"/>
<path d="M492.96 852.602L451.88 874.816V919.247L492.96 897.032V852.602Z" fill="#534741"/>
<path d="M616.2 1119.18V1096.97L575.12 1119.18H616.2Z" fill="#534741"/>
<path d="M164.32 363.87L123.24 386.086V430.515L164.32 408.301V363.87Z" fill="#534741"/>
<path d="M41.0798 208.366V341.656L82.1598 363.87V230.58L41.0798 208.366Z" fill="#736357"/>
<path d="M82.1598 186.151L41.0798 208.366L82.1598 230.58L123.24 208.366L82.1598 186.151Z" fill="#8CC63F"/>
<path d="M123.24 208.366L82.16 230.58V363.87L123.24 341.656V208.366Z" fill="#534741"/>
<path d="M0 52.86V97.2896L41.08 75.0748L0 52.86Z" fill="#8CC63F"/>
<path d="M41.08 75.0748L0 97.2896V363.87L41.08 341.656V75.0748Z" fill="#534741"/>
<path d="M410.8 852.602L369.72 874.816V919.247L410.8 897.032V852.602Z" fill="#534741"/>
<path d="M410.799 1119.18L451.879 1096.97V919.247L410.799 941.462V1119.18Z" fill="#534741"/>
<path d="M41.0798 430.515L82.1598 408.301V363.87L41.0798 386.086V430.515Z" fill="#534741"/>
<path d="M123.24 430.515L82.16 452.731V497.161L123.24 474.946V430.515Z" fill="#534741"/>
<path d="M246.48 808.171V763.741L205.4 785.956L164.32 808.171V852.602L205.4 830.387L246.48 808.171Z" fill="#534741"/>
<path d="M328.64 897.032L287.56 919.247V963.678L328.64 941.462V897.032Z" fill="#534741"/>
<path d="M328.64 1074.75V1119.18H369.72V963.678L328.64 985.892V1074.75Z" fill="#534741"/>
<path d="M246.48 941.462V897.032V897.031L287.56 874.816V830.387L246.48 852.602L205.4 874.816V919.247L164.32 941.462V985.892L205.4 963.678L246.48 941.462Z" fill="#534741"/>
<path d="M41.0798 697.097V785.956L82.1598 763.741L123.24 741.526V652.666L82.1598 674.881L41.0798 697.097Z" fill="#534741"/>
<path d="M123.24 963.678V919.247V785.956L82.1598 808.171L41.0798 830.387V919.247L82.1598 941.462L41.0798 963.678V1008.11L82.1598 985.892L123.24 963.678Z" fill="#534741"/>
<path d="M205.4 1008.11V1052.54V1119.18H287.56V963.678L246.48 985.892L205.4 1008.11Z" fill="#534741"/>
<path d="M82.16 1030.32V1119.18H123.24H164.32V1030.32V985.892L123.24 1008.11L82.16 1030.32Z" fill="#534741"/>
<path d="M2012.92 919.247V963.677V963.678L1971.84 985.892V1030.32V1119.18H2012.92H2054V897.032L2012.92 919.247Z" fill="#534741"/>
<defs>
<linearGradient id="paint0_linear_146_685" x1="950.05" y1="1003.69" x2="1365.82" y2="-709.383" gradientUnits="userSpaceOnUse">
<stop stop-color="white"/>
<stop offset="0.0001" stop-color="#B3DBEC" stop-opacity="0"/>
<stop offset="0.0002" stop-color="#EFFAFF" stop-opacity="0"/>
</linearGradient>
</defs>
</svg>
