<svg width="1445" height="762" viewBox="0 0 1445 762" fill="none" xmlns="http://www.w3.org/2000/svg">
<path d="M1300.5 683.178L1329.4 698.807V667.551L1300.5 651.923V683.178Z" fill="#736357"/>
<path d="M1387.2 605.037V605.037V511.266L1358.3 495.638V651.923L1387.2 636.294L1416.1 651.923V651.922V620.665L1387.2 605.037Z" fill="#736357"/>
<path d="M1358.3 714.436V761.321H1387.2V698.807V667.551L1358.3 651.923V683.178V714.436Z" fill="#736357"/>
<path d="M1242.7 651.923L1213.8 636.294V667.551L1242.7 683.178V651.923Z" fill="#736357"/>
<path d="M1184.9 714.436L1213.8 730.064V698.807L1184.9 683.178V714.436Z" fill="#736357"/>
<path d="M1011.5 620.665V651.923L1040.4 667.551L1069.3 683.178V651.923L1040.4 636.294L1011.5 620.665Z" fill="#736357"/>
<path d="M1300.5 745.693V761.321H1329.4V730.064L1300.5 714.436V745.693Z" fill="#736357"/>
<path d="M1242.7 745.693L1271.6 761.321V730.064L1242.7 714.436V745.693Z" fill="#736357"/>
<path d="M1127.1 651.923V714.436L1156 730.064V667.551L1127.1 651.923Z" fill="#736357"/>
<path d="M1156 761.321H1184.9V745.693L1156 730.064V761.321Z" fill="#736357"/>
<path d="M1011.5 714.436L1040.4 730.064V698.807L1011.5 683.178V714.436Z" fill="#736357"/>
<path d="M1011.5 761.321H1040.4L1011.5 745.693V761.321Z" fill="#736357"/>
<path d="M924.8 667.551L953.7 683.178V651.923L924.8 636.294V667.551Z" fill="#736357"/>
<path d="M924.8 730.064L953.7 745.693V714.436L924.8 698.807V730.064Z" fill="#736357"/>
<path d="M838.1 620.665L867 636.294V605.037L838.1 589.408V620.665Z" fill="#736357"/>
<path d="M780.3 651.923V683.178L809.2 698.807V667.551L780.3 651.923Z" fill="#736357"/>
<path d="M809.2 730.064L838.1 745.693V714.436L809.2 698.807V730.064Z" fill="#736357"/>
<path d="M780.3 761.321H809.2L780.3 745.693V761.321Z" fill="#736357"/>
<path d="M722.5 761.321H751.4V730.064L722.5 714.436V761.321Z" fill="#736357"/>
<path d="M664.7 714.436L693.6 730.064V667.551L664.7 651.923V714.436Z" fill="#736357"/>
<path d="M635.8 667.551L606.9 651.923V683.178L578 667.551V636.294L549.1 620.665V714.436L578 730.064V761.321H606.9H635.8H664.7V745.693L635.8 730.064V667.551Z" fill="#736357"/>
<path d="M491.3 589.408L520.2 605.037V573.78L491.3 558.152V589.408Z" fill="#736357"/>
<path d="M491.301 620.665L462.401 605.037V698.807L491.301 714.436V620.665Z" fill="#736357"/>
<path d="M491.3 761.321H520.2L491.3 745.693V761.321Z" fill="#736357"/>
<path d="M346.8 605.037L375.7 620.665V589.408L346.8 573.78V605.037Z" fill="#736357"/>
<path d="M317.9 589.408L289 573.78V605.037L317.9 620.665V589.408Z" fill="#736357"/>
<path d="M375.7 714.436V683.178L346.8 667.551V636.294L317.9 620.665V745.693L346.8 761.321H375.7H404.6L375.7 745.693V714.436Z" fill="#736357"/>
<path d="M57.8001 229.955V261.212L86.7001 276.84V245.584L57.8001 229.955Z" fill="#736357"/>
<path d="M86.6998 276.84V308.097L115.6 323.726L144.5 339.354V308.097L115.6 292.469L86.6998 276.84Z" fill="#736357"/>
<path d="M260.1 589.408L231.2 573.78L202.3 558.152V589.408L231.2 605.037V636.294L260.1 651.923V761.321H289V636.294L260.1 620.665V589.408Z" fill="#736357"/>
<path d="M57.8 417.496L86.7 433.125V495.638L115.6 511.267V354.982L86.7 339.354L57.8 323.726V292.469L28.9 276.84V245.584L0 229.955V323.726V448.753L28.9 433.125L57.8 417.496Z" fill="#736357"/>
<path d="M173.4 605.037V636.294L202.3 651.923V620.665L173.4 605.037Z" fill="#736357"/>
<path d="M202.3 761.321H231.2V730.064V667.551L202.3 651.923V761.321Z" fill="#736357"/>
<path d="M115.6 542.523L86.6998 526.895V620.665L115.6 605.037L144.5 620.665V589.408L115.6 573.78V542.523Z" fill="#736357"/>
<path d="M28.9 526.895V464.382L0 448.753V542.523L28.9 526.895Z" fill="#736357"/>
<path d="M115.6 667.551V636.294L86.6998 620.665V651.923L115.6 667.551Z" fill="#736357"/>
<path d="M115.6 761.321H144.5V714.436V683.178L115.6 667.551V698.807V761.321Z" fill="#736357"/>
<path d="M28.9 620.665V558.152L0 542.523V636.294L28.9 620.665Z" fill="#736357"/>
<path d="M0 761.321H28.9H57.8V698.807L28.9 683.178V651.923L0 636.294V698.807V761.321Z" fill="#736357"/>
<path d="M1271.6 667.551L1300.5 651.923L1271.6 636.294V667.551Z" fill="#8CC63F"/>
<path d="M1300.5 651.923L1329.4 667.551L1358.3 651.923L1329.4 636.294L1300.5 651.923Z" fill="#8CC63F"/>
<path d="M1387.2 511.266L1416.1 495.638L1387.2 480.01L1358.3 495.638L1387.2 511.266Z" fill="#8CC63F"/>
<path d="M1300.5 683.178L1271.6 698.807L1242.7 714.436L1271.6 730.064L1300.5 714.436L1329.4 730.064L1358.3 714.436L1329.4 698.807L1300.5 683.178Z" fill="#1F7138"/>
<path d="M1213.8 636.294L1242.7 651.923L1271.6 636.294L1242.7 620.665L1213.8 636.294Z" fill="#1F7138"/>
<path d="M1156 636.294L1127.1 651.923L1156 667.551L1184.9 651.923L1213.8 636.294L1184.9 620.665L1156 636.294Z" fill="#1F7138"/>
<path d="M1242.7 683.178L1213.8 667.551L1184.9 683.178L1213.8 698.807L1242.7 683.178Z" fill="#1F7138"/>
<path d="M982.6 605.037L1011.5 589.408L982.6 573.78L953.7 589.408L924.8 605.037L895.9 589.408V620.665V651.923L924.8 636.294L953.7 651.923L982.6 636.294L953.7 620.665L982.6 605.037Z" fill="#1F7138"/>
<path d="M1040.4 605.037L1011.5 620.665L1040.4 636.294L1069.3 651.923L1098.2 636.294L1069.3 620.665L1040.4 605.037Z" fill="#8CC63F"/>
<path d="M982.599 636.294V667.551L1011.5 651.923L982.599 636.294Z" fill="#8CC63F"/>
<path d="M1098.2 667.551L1127.1 651.923L1098.2 636.294V667.551Z" fill="#8CC63F"/>
<path d="M1213.8 761.321H1242.7H1271.6L1242.7 745.693L1213.8 761.321Z" fill="#8CC63F"/>
<path d="M1184.9 714.436L1156 730.064L1184.9 745.693L1213.8 730.064L1184.9 714.436Z" fill="#8CC63F"/>
<path d="M1098.2 730.064V761.321L1127.1 745.693L1156 730.064L1127.1 714.436L1098.2 730.064Z" fill="#1F7138"/>
<path d="M1040.4 698.807L1069.3 683.178L1040.4 667.551L1011.5 651.923V683.178L1040.4 698.807Z" fill="#8CC63F"/>
<path d="M1098.2 730.064L1069.3 714.436L1040.4 730.064L1011.5 714.436V745.693L1040.4 761.321H1069.3H1098.2L1069.3 745.693L1098.2 730.064Z" fill="#1F7138"/>
<path d="M953.7 714.436L982.6 698.807L1011.5 683.178L982.6 667.551L953.7 683.178L924.8 667.551V698.807L953.7 714.436Z" fill="#8CC63F"/>
<path d="M953.7 745.693L924.8 730.064V761.321H953.7H982.6L1011.5 745.693L982.6 730.064L953.7 745.693Z" fill="#8CC63F"/>
<path d="M838.1 558.152L809.2 573.78L693.6 636.294L664.7 620.665L635.8 636.294L606.9 651.923L635.8 667.551L664.7 651.923L693.6 667.551L722.5 651.923L780.3 620.665L809.2 605.037L838.1 589.408L867 605.037L895.9 589.408L867 573.78L838.1 558.152Z" fill="#1F7138"/>
<path d="M895.9 714.436L867 730.064L838.1 745.693L809.2 730.064L780.3 745.693L809.2 761.321H838.1H867L895.9 745.693L924.8 730.064L895.9 714.436Z" fill="#1F7138"/>
<path d="M838.1 651.923L867 636.294L838.1 620.665L809.2 636.294L780.3 651.923L809.2 667.551L838.1 651.923Z" fill="#1F7138"/>
<path d="M867 698.807L895.9 683.178L924.8 667.551L895.9 651.923L867 667.551L838.1 683.178L809.2 698.807L838.1 714.436L867 698.807Z" fill="#1F7138"/>
<path d="M809.2 698.807L780.3 683.178L751.4 698.807L722.5 714.436L751.4 730.064L780.3 714.436L809.2 698.807Z" fill="#8CC63F"/>
<path d="M578 636.294L606.9 620.665L578 605.037L549.1 620.665L578 636.294Z" fill="#8CC63F"/>
<path d="M606.9 683.178V651.923L578 667.551L606.9 683.178Z" fill="#8CC63F"/>
<path d="M549.1 558.152L520.2 542.523L491.3 558.152L520.2 573.78L549.1 558.152Z" fill="#8CC63F"/>
<path d="M520.2 730.064L491.3 745.693L520.2 761.321L549.1 745.693L578 730.064L549.1 714.436L520.2 730.064Z" fill="#8CC63F"/>
<path d="M635.8 730.064L664.7 745.693L693.6 730.064L664.7 714.436L635.8 730.064Z" fill="#8CC63F"/>
<path d="M462.401 605.037L491.301 620.665L520.201 605.037L491.301 589.408L462.401 605.037Z" fill="#8CC63F"/>
<path d="M491.301 714.436L462.401 698.807V730.064L491.301 714.436Z" fill="#8CC63F"/>
<path d="M433.5 589.408L462.4 573.78L491.3 558.152L462.4 542.523L433.5 558.152L404.6 573.78V605.037L433.5 589.408Z" fill="#8CC63F"/>
<path d="M404.6 698.807V730.064L433.5 714.436L462.4 698.807L433.5 683.178L404.6 698.807Z" fill="#1F7138"/>
<path d="M462.401 761.321L433.5 745.693V761.321H462.401Z" fill="#8CC63F"/>
<path d="M346.8 573.78L375.7 589.408L404.599 573.78L375.7 558.152L346.8 542.523L317.9 558.152L289 573.78L317.9 589.408L346.8 573.78Z" fill="#8CC63F"/>
<path d="M346.8 636.294L375.7 620.665L346.8 605.037L317.9 620.665L346.8 636.294Z" fill="#1F7138"/>
<path d="M404.6 667.551L375.7 651.923L346.8 667.551L375.7 683.178L404.6 667.551Z" fill="#1F7138"/>
<path d="M404.6 761.321L433.5 745.693L404.6 730.064L375.7 745.693L404.6 761.321Z" fill="#8CC63F"/>
<path d="M86.7001 214.327V214.327L57.8001 229.955L86.7001 245.584L115.6 229.955L86.7001 214.327V214.327Z" fill="#8CC63F"/>
<path d="M173.4 292.469L144.5 276.84L115.6 261.212L86.6998 276.84L115.6 292.469L144.5 308.097L173.4 292.469Z" fill="#8CC63F"/>
<path d="M260.1 589.408L289 573.78L260.1 558.152L231.2 542.523L202.3 558.152L231.2 573.78L260.1 589.408Z" fill="#1F7138"/>
<path d="M317.9 620.665L289 605.037L260.1 620.665L289 636.294L317.9 620.665Z" fill="#1F7138"/>
<path d="M317.9 745.693L289 761.321H317.9H346.8L317.9 745.693Z" fill="#8CC63F"/>
<path d="M57.8 229.955L28.9 214.327L0 229.955L28.9 245.584L57.8 229.955Z" fill="#8CC63F"/>
<path d="M28.9 276.84L57.8 292.469L86.7 276.84L57.8 261.212L28.9 276.84Z" fill="#8CC63F"/>
<path d="M86.7001 308.097L57.8001 323.726L86.7001 339.354L115.6 354.982L144.5 339.354L115.6 323.726L86.7001 308.097Z" fill="#8CC63F"/>
<path d="M173.4 605.037V605.037L202.3 620.665L231.2 605.037L202.3 589.408L173.4 605.037Z" fill="#8CC63F"/>
<path d="M202.3 651.923L231.2 667.551L260.1 651.923L231.2 636.294L202.3 651.923Z" fill="#1F7138"/>
<path d="M144.5 558.152L115.6 573.78L144.5 589.408L173.4 573.78L202.3 558.152L173.4 542.523L144.5 558.152Z" fill="#8CC63F"/>
<path d="M173.4 636.294L144.5 651.923L115.6 667.551L144.5 683.178L173.4 667.551L202.3 651.923L173.4 636.294Z" fill="#1F7138"/>
<path d="M57.8 448.753L86.7 433.125L57.8 417.496L28.9 433.125L0 448.753L28.9 464.382L57.8 448.753Z" fill="#8CC63F"/>
<path d="M86.6998 620.665L115.6 636.294L144.5 620.665L115.6 605.037L86.6998 620.665Z" fill="#8CC63F"/>
<path d="M57.8 542.523L86.7 526.895L115.6 542.523L144.5 526.895L173.4 511.266L144.5 495.638L115.6 511.266L86.7 495.638L57.8 511.266L28.9 526.895L0 542.523L28.9 558.152L57.8 542.523Z" fill="#8CC63F"/>
<path d="M57.8 667.551L28.9 683.178L57.8 698.807L86.7 683.178L115.6 667.551L86.7 651.923L57.8 667.551Z" fill="#1F7138"/>
<path d="M57.8 636.294L28.9 620.665L0 636.294L28.9 651.923L57.8 636.294Z" fill="#8CC63F"/>
<path d="M1387.2 636.294L1358.3 651.923L1387.2 667.551L1416.1 651.923L1387.2 636.294Z" fill="#1F7138"/>
<path d="M1416.1 589.408L1387.2 605.037V605.037L1416.1 620.665L1445 605.037L1416.1 589.408Z" fill="#8CC63F"/>
<path d="M1329.4 698.807L1358.3 714.436V683.178V651.923L1329.4 667.551V698.807Z" fill="#534741"/>
<path d="M1416.1 589.408V495.638L1387.2 511.266V605.037L1416.1 589.408Z" fill="#534741"/>
<path d="M1271.6 636.294L1242.7 651.923V683.178L1213.8 698.807V730.064L1184.9 745.693V761.321H1213.8L1242.7 745.693V714.436L1271.6 698.807L1300.5 683.178V651.923L1271.6 667.551V636.294Z" fill="#534741"/>
<path d="M953.7 620.665L982.6 636.294L1011.5 651.923V620.665V589.408L982.6 605.037L953.7 620.665Z" fill="#534741"/>
<path d="M1011.5 683.178V651.923L982.599 667.551L1011.5 683.178Z" fill="#534741"/>
<path d="M1127.1 651.923L1098.2 667.551V636.294L1069.3 651.923V683.178L1040.4 698.807V730.064L1069.3 714.436L1098.2 730.064L1127.1 714.436V651.923Z" fill="#534741"/>
<path d="M1329.4 761.321H1358.3V714.436L1329.4 730.064V761.321Z" fill="#534741"/>
<path d="M1271.6 761.321H1300.5V745.693V714.436L1271.6 730.064V761.321Z" fill="#534741"/>
<path d="M1184.9 683.178L1213.8 667.551V636.294L1184.9 651.923L1156 667.551V730.064L1184.9 714.436V683.178Z" fill="#534741"/>
<path d="M1098.2 761.321H1127.1H1156V730.064L1127.1 745.693L1098.2 761.321Z" fill="#534741"/>
<path d="M1069.3 745.693L1098.2 761.321V730.064L1069.3 745.693Z" fill="#534741"/>
<path d="M953.7 651.923V683.178L982.6 667.551V636.294L953.7 651.923Z" fill="#534741"/>
<path d="M953.7 714.436V745.693L982.6 730.064L1011.5 745.693V714.436V683.178L982.6 698.807L953.7 714.436Z" fill="#534741"/>
<path d="M1011.5 761.321V745.693L982.599 761.321H1011.5Z" fill="#534741"/>
<path d="M895.9 620.665V589.408L867 605.037V636.294L838.1 651.923L809.2 667.551V698.807L838.1 683.178L867 667.551L895.9 651.923L924.8 667.551V636.294L895.9 651.923V620.665Z" fill="#534741"/>
<path d="M895.9 683.178L867 698.807L838.1 714.436V745.693L867 730.064L895.9 714.436L924.8 730.064V698.807V667.551L895.9 683.178Z" fill="#534741"/>
<path d="M895.9 745.693L867 761.321H895.9H924.8V730.064L895.9 745.693Z" fill="#534741"/>
<path d="M549.1 714.436V620.665V558.152L520.2 573.78V605.037L491.3 620.665V714.436L462.4 730.064V698.807L433.5 714.436L404.6 730.064L433.5 745.693L462.4 761.321H491.3V745.693L520.2 730.064L549.1 714.436Z" fill="#534741"/>
<path d="M780.3 683.178V651.923L809.2 636.294L838.1 620.665V589.408L809.2 605.037L722.5 651.923L693.6 667.551V730.064L664.7 745.693V761.321H693.6H722.5V714.436L751.4 698.807L780.3 683.178Z" fill="#534741"/>
<path d="M751.4 730.064V761.321H780.3V745.693L809.2 730.064V698.807L780.3 714.435L751.4 730.064Z" fill="#534741"/>
<path d="M578 667.551L606.9 651.923V620.665L578 636.294V667.551Z" fill="#534741"/>
<path d="M664.7 651.923L635.8 667.551V730.064L664.7 714.436V651.923Z" fill="#534741"/>
<path d="M520.2 761.321H549.1H578V730.064L549.1 745.693L520.2 761.321Z" fill="#534741"/>
<path d="M144.5 339.354L115.6 354.982V511.266L144.5 495.638V401.867L173.4 386.239V323.726V292.469L144.5 308.097V339.354Z" fill="#534741"/>
<path d="M433.5 683.178L462.4 698.807V605.037L491.3 589.408V558.152L462.4 573.78L433.5 589.408L404.6 605.037V573.78L375.7 589.408V620.665L346.8 636.294V667.551L375.7 651.923L404.6 667.551L375.7 683.178V714.436V745.693L404.6 730.064V698.807L433.5 683.178Z" fill="#534741"/>
<path d="M346.8 573.78L317.9 589.408V620.665L346.8 605.037V573.78Z" fill="#534741"/>
<path d="M433.5 761.321V745.693L404.6 761.321H433.5Z" fill="#534741"/>
<path d="M115.6 229.955L86.6998 245.584V276.84L115.6 261.212V229.955Z" fill="#534741"/>
<path d="M28.9 120.557V214.327L57.8 229.955V136.185L28.9 120.557Z" fill="#736357"/>
<path d="M57.8 104.928L28.9 120.557L57.8 136.185L86.7 120.557L57.8 104.928Z" fill="#8CC63F"/>
<path d="M86.7001 120.557L57.8001 136.185V229.955L86.7001 214.327V120.557Z" fill="#534741"/>
<path d="M0 11.1576V42.414L28.9 26.7858L0 11.1576Z" fill="#8CC63F"/>
<path d="M28.9 26.7858L0 42.414V229.955L28.9 214.327V26.7858Z" fill="#534741"/>
<path d="M289 573.78L260.1 589.408V620.665L289 605.037V573.78Z" fill="#534741"/>
<path d="M289 761.321L317.9 745.693V620.665L289 636.294V761.321Z" fill="#534741"/>
<path d="M28.9 276.84L57.8 261.212V229.955L28.9 245.584V276.84Z" fill="#534741"/>
<path d="M86.7001 276.84L57.8001 292.469V323.726L86.7001 308.097V276.84Z" fill="#534741"/>
<path d="M173.4 542.523V511.266L144.5 526.895L115.6 542.523V573.78L144.5 558.152L173.4 542.523Z" fill="#534741"/>
<path d="M231.2 605.037L202.3 620.665V651.923L231.2 636.294V605.037Z" fill="#534741"/>
<path d="M231.2 730.064V761.321H260.1V651.923L231.2 667.551V730.064Z" fill="#534741"/>
<path d="M173.4 636.294V605.037V605.037L202.3 589.408V558.152L173.4 573.78L144.5 589.408V620.665L115.6 636.294V667.551L144.5 651.923L173.4 636.294Z" fill="#534741"/>
<path d="M28.9 464.382V526.895L57.8 511.266L86.7 495.638V433.125L57.8 448.753L28.9 464.382Z" fill="#534741"/>
<path d="M86.7 651.923V620.665V526.895L57.8 542.523L28.9 558.152V620.665L57.8 636.294L28.9 651.923V683.178L57.8 667.551L86.7 651.923Z" fill="#534741"/>
<path d="M144.5 683.178V714.436V761.321H202.3V651.923L173.4 667.551L144.5 683.178Z" fill="#534741"/>
<path d="M57.8001 698.807V761.321H86.7001H115.6V698.807V667.551L86.7001 683.178L57.8001 698.807Z" fill="#534741"/>
<path d="M1416.1 620.665V651.922V651.923L1387.2 667.551V698.807V761.321H1416.1H1445V605.037L1416.1 620.665Z" fill="#534741"/>
<g opacity="0.6">
<mask id="mask0_131_308" style="mask-type:alpha" maskUnits="userSpaceOnUse" x="1300" y="651" width="30" height="48">
<path d="M1300.5 683.178L1329.4 698.807V667.551L1300.5 651.923V683.178Z" fill="url(#paint0_linear_131_308)"/>
</mask>
<g mask="url(#mask0_131_308)">
<path d="M1300.5 683.178L1329.4 698.807V667.551L1300.5 651.923V683.178Z" fill="url(#paint1_linear_131_308)"/>
</g>
<mask id="mask1_131_308" style="mask-type:alpha" maskUnits="userSpaceOnUse" x="1358" y="495" width="59" height="157">
<path d="M1387.2 605.037V605.037V511.266L1358.3 495.638V651.923L1387.2 636.294L1416.1 651.923V651.922V620.665L1387.2 605.037Z" fill="url(#paint2_linear_131_308)"/>
</mask>
<g mask="url(#mask1_131_308)">
<path d="M1387.2 605.037V605.037V511.266L1358.3 495.638V651.923L1387.2 636.294L1416.1 651.923V651.922V620.665L1387.2 605.037Z" fill="url(#paint3_linear_131_308)"/>
</g>
<mask id="mask2_131_308" style="mask-type:alpha" maskUnits="userSpaceOnUse" x="1358" y="651" width="30" height="111">
<path d="M1358.3 714.436V761.321H1387.2V698.807V667.551L1358.3 651.923V683.178V714.436Z" fill="url(#paint4_linear_131_308)"/>
</mask>
<g mask="url(#mask2_131_308)">
<path d="M1358.3 714.436V761.321H1387.2V698.807V667.551L1358.3 651.923V683.178V714.436Z" fill="url(#paint5_linear_131_308)"/>
</g>
<mask id="mask3_131_308" style="mask-type:alpha" maskUnits="userSpaceOnUse" x="1213" y="636" width="30" height="48">
<path d="M1242.7 651.923L1213.8 636.294V667.551L1242.7 683.178V651.923Z" fill="url(#paint6_linear_131_308)"/>
</mask>
<g mask="url(#mask3_131_308)">
<path d="M1242.7 651.923L1213.8 636.294V667.551L1242.7 683.178V651.923Z" fill="url(#paint7_linear_131_308)"/>
</g>
<mask id="mask4_131_308" style="mask-type:alpha" maskUnits="userSpaceOnUse" x="1184" y="683" width="30" height="48">
<path d="M1184.9 714.436L1213.8 730.064V698.807L1184.9 683.178V714.436Z" fill="url(#paint8_linear_131_308)"/>
</mask>
<g mask="url(#mask4_131_308)">
<path d="M1184.9 714.436L1213.8 730.064V698.807L1184.9 683.178V714.436Z" fill="url(#paint9_linear_131_308)"/>
</g>
<mask id="mask5_131_308" style="mask-type:alpha" maskUnits="userSpaceOnUse" x="1011" y="620" width="59" height="64">
<path d="M1011.5 620.665V651.923L1040.4 667.551L1069.3 683.178V651.923L1040.4 636.294L1011.5 620.665Z" fill="url(#paint10_linear_131_308)"/>
</mask>
<g mask="url(#mask5_131_308)">
<path d="M1011.5 620.665V651.923L1040.4 667.551L1069.3 683.178V651.923L1040.4 636.294L1011.5 620.665Z" fill="url(#paint11_linear_131_308)"/>
</g>
<mask id="mask6_131_308" style="mask-type:alpha" maskUnits="userSpaceOnUse" x="1300" y="714" width="30" height="48">
<path d="M1300.5 745.693V761.321H1329.4V730.064L1300.5 714.436V745.693Z" fill="url(#paint12_linear_131_308)"/>
</mask>
<g mask="url(#mask6_131_308)">
<path d="M1300.5 745.693V761.321H1329.4V730.064L1300.5 714.436V745.693Z" fill="url(#paint13_linear_131_308)"/>
</g>
<mask id="mask7_131_308" style="mask-type:alpha" maskUnits="userSpaceOnUse" x="1242" y="714" width="30" height="48">
<path d="M1242.7 745.693L1271.6 761.321V730.064L1242.7 714.436V745.693Z" fill="url(#paint14_linear_131_308)"/>
</mask>
<g mask="url(#mask7_131_308)">
<path d="M1242.7 745.693L1271.6 761.321V730.064L1242.7 714.436V745.693Z" fill="url(#paint15_linear_131_308)"/>
</g>
<mask id="mask8_131_308" style="mask-type:alpha" maskUnits="userSpaceOnUse" x="1127" y="651" width="30" height="80">
<path d="M1127.1 651.923V714.436L1156 730.064V667.551L1127.1 651.923Z" fill="url(#paint16_linear_131_308)"/>
</mask>
<g mask="url(#mask8_131_308)">
<path d="M1127.1 651.923V714.436L1156 730.064V667.551L1127.1 651.923Z" fill="url(#paint17_linear_131_308)"/>
</g>
<mask id="mask9_131_308" style="mask-type:alpha" maskUnits="userSpaceOnUse" x="1156" y="730" width="29" height="32">
<path d="M1156 761.321H1184.9V745.693L1156 730.064V761.321Z" fill="url(#paint18_linear_131_308)"/>
</mask>
<g mask="url(#mask9_131_308)">
<path d="M1156 761.321H1184.9V745.693L1156 730.064V761.321Z" fill="url(#paint19_linear_131_308)"/>
</g>
<mask id="mask10_131_308" style="mask-type:alpha" maskUnits="userSpaceOnUse" x="1011" y="683" width="30" height="48">
<path d="M1011.5 714.436L1040.4 730.064V698.807L1011.5 683.178V714.436Z" fill="url(#paint20_linear_131_308)"/>
</mask>
<g mask="url(#mask10_131_308)">
<path d="M1011.5 714.436L1040.4 730.064V698.807L1011.5 683.178V714.436Z" fill="url(#paint21_linear_131_308)"/>
</g>
<mask id="mask11_131_308" style="mask-type:alpha" maskUnits="userSpaceOnUse" x="1011" y="745" width="30" height="17">
<path d="M1011.5 761.321H1040.4L1011.5 745.693V761.321Z" fill="url(#paint22_linear_131_308)"/>
</mask>
<g mask="url(#mask11_131_308)">
<path d="M1011.5 761.321H1040.4L1011.5 745.693V761.321Z" fill="url(#paint23_linear_131_308)"/>
</g>
<mask id="mask12_131_308" style="mask-type:alpha" maskUnits="userSpaceOnUse" x="924" y="636" width="30" height="48">
<path d="M924.8 667.551L953.7 683.178V651.923L924.8 636.294V667.551Z" fill="url(#paint24_linear_131_308)"/>
</mask>
<g mask="url(#mask12_131_308)">
<path d="M924.8 667.551L953.7 683.178V651.923L924.8 636.294V667.551Z" fill="url(#paint25_linear_131_308)"/>
</g>
<mask id="mask13_131_308" style="mask-type:alpha" maskUnits="userSpaceOnUse" x="924" y="698" width="30" height="48">
<path d="M924.8 730.064L953.7 745.693V714.436L924.8 698.807V730.064Z" fill="url(#paint26_linear_131_308)"/>
</mask>
<g mask="url(#mask13_131_308)">
<path d="M924.8 730.064L953.7 745.693V714.436L924.8 698.807V730.064Z" fill="url(#paint27_linear_131_308)"/>
</g>
<mask id="mask14_131_308" style="mask-type:alpha" maskUnits="userSpaceOnUse" x="838" y="589" width="30" height="48">
<path d="M838.1 620.665L867 636.294V605.037L838.1 589.408V620.665Z" fill="url(#paint28_linear_131_308)"/>
</mask>
<g mask="url(#mask14_131_308)">
<path d="M838.1 620.665L867 636.294V605.037L838.1 589.408V620.665Z" fill="url(#paint29_linear_131_308)"/>
</g>
<mask id="mask15_131_308" style="mask-type:alpha" maskUnits="userSpaceOnUse" x="780" y="651" width="30" height="48">
<path d="M780.3 651.923V683.178L809.2 698.807V667.551L780.3 651.923Z" fill="url(#paint30_linear_131_308)"/>
</mask>
<g mask="url(#mask15_131_308)">
<path d="M780.3 651.923V683.178L809.2 698.807V667.551L780.3 651.923Z" fill="url(#paint31_linear_131_308)"/>
</g>
<mask id="mask16_131_308" style="mask-type:alpha" maskUnits="userSpaceOnUse" x="809" y="698" width="30" height="48">
<path d="M809.2 730.064L838.1 745.693V714.436L809.2 698.807V730.064Z" fill="url(#paint32_linear_131_308)"/>
</mask>
<g mask="url(#mask16_131_308)">
<path d="M809.2 730.064L838.1 745.693V714.436L809.2 698.807V730.064Z" fill="url(#paint33_linear_131_308)"/>
</g>
<mask id="mask17_131_308" style="mask-type:alpha" maskUnits="userSpaceOnUse" x="780" y="745" width="30" height="17">
<path d="M780.3 761.321H809.2L780.3 745.693V761.321Z" fill="url(#paint34_linear_131_308)"/>
</mask>
<g mask="url(#mask17_131_308)">
<path d="M780.3 761.321H809.2L780.3 745.693V761.321Z" fill="url(#paint35_linear_131_308)"/>
</g>
<mask id="mask18_131_308" style="mask-type:alpha" maskUnits="userSpaceOnUse" x="722" y="714" width="30" height="48">
<path d="M722.5 761.321H751.4V730.064L722.5 714.436V761.321Z" fill="url(#paint36_linear_131_308)"/>
</mask>
<g mask="url(#mask18_131_308)">
<path d="M722.5 761.321H751.4V730.064L722.5 714.436V761.321Z" fill="url(#paint37_linear_131_308)"/>
</g>
<mask id="mask19_131_308" style="mask-type:alpha" maskUnits="userSpaceOnUse" x="664" y="651" width="30" height="80">
<path d="M664.7 714.436L693.6 730.064V667.551L664.7 651.923V714.436Z" fill="url(#paint38_linear_131_308)"/>
</mask>
<g mask="url(#mask19_131_308)">
<path d="M664.7 714.436L693.6 730.064V667.551L664.7 651.923V714.436Z" fill="url(#paint39_linear_131_308)"/>
</g>
<mask id="mask20_131_308" style="mask-type:alpha" maskUnits="userSpaceOnUse" x="549" y="620" width="116" height="142">
<path d="M635.8 667.551L606.9 651.923V683.178L578 667.551V636.294L549.1 620.665V714.436L578 730.064V761.321H606.9H635.8H664.7V745.693L635.8 730.064V667.551Z" fill="url(#paint40_linear_131_308)"/>
</mask>
<g mask="url(#mask20_131_308)">
<path d="M635.8 667.551L606.9 651.923V683.178L578 667.551V636.294L549.1 620.665V714.436L578 730.064V761.321H606.9H635.8H664.7V745.693L635.8 730.064V667.551Z" fill="url(#paint41_linear_131_308)"/>
</g>
<mask id="mask21_131_308" style="mask-type:alpha" maskUnits="userSpaceOnUse" x="491" y="558" width="30" height="48">
<path d="M491.3 589.408L520.2 605.037V573.78L491.3 558.152V589.408Z" fill="url(#paint42_linear_131_308)"/>
</mask>
<g mask="url(#mask21_131_308)">
<path d="M491.3 589.408L520.2 605.037V573.78L491.3 558.152V589.408Z" fill="url(#paint43_linear_131_308)"/>
</g>
<mask id="mask22_131_308" style="mask-type:alpha" maskUnits="userSpaceOnUse" x="462" y="605" width="30" height="110">
<path d="M491.3 620.665L462.4 605.037V698.807L491.3 714.436V620.665Z" fill="url(#paint44_linear_131_308)"/>
</mask>
<g mask="url(#mask22_131_308)">
<path d="M491.301 620.665L462.401 605.037V698.807L491.301 714.436V620.665Z" fill="url(#paint45_linear_131_308)"/>
</g>
<mask id="mask23_131_308" style="mask-type:alpha" maskUnits="userSpaceOnUse" x="491" y="745" width="30" height="17">
<path d="M491.3 761.321H520.2L491.3 745.693V761.321Z" fill="url(#paint46_linear_131_308)"/>
</mask>
<g mask="url(#mask23_131_308)">
<path d="M491.3 761.321H520.2L491.3 745.693V761.321Z" fill="url(#paint47_linear_131_308)"/>
</g>
<mask id="mask24_131_308" style="mask-type:alpha" maskUnits="userSpaceOnUse" x="346" y="573" width="30" height="48">
<path d="M346.8 605.037L375.7 620.666V589.408L346.8 573.78V605.037Z" fill="url(#paint48_linear_131_308)"/>
</mask>
<g mask="url(#mask24_131_308)">
<path d="M346.8 605.037L375.7 620.666V589.408L346.8 573.78V605.037Z" fill="url(#paint49_linear_131_308)"/>
</g>
<mask id="mask25_131_308" style="mask-type:alpha" maskUnits="userSpaceOnUse" x="288" y="573" width="30" height="48">
<path d="M317.9 589.408L289 573.78V605.037L317.9 620.666V589.408Z" fill="url(#paint50_linear_131_308)"/>
</mask>
<g mask="url(#mask25_131_308)">
<path d="M317.9 589.408L289 573.78V605.037L317.9 620.666V589.408Z" fill="url(#paint51_linear_131_308)"/>
</g>
<mask id="mask26_131_308" style="mask-type:alpha" maskUnits="userSpaceOnUse" x="317" y="620" width="88" height="142">
<path d="M375.7 714.436V683.178L346.8 667.551V636.294L317.9 620.665V745.693L346.8 761.321H375.7H404.6L375.7 745.693V714.436Z" fill="url(#paint52_linear_131_308)"/>
</mask>
<g mask="url(#mask26_131_308)">
<path d="M375.7 714.436V683.178L346.8 667.551V636.294L317.9 620.665V745.693L346.8 761.321H375.7H404.6L375.7 745.693V714.436Z" fill="url(#paint53_linear_131_308)"/>
</g>
<mask id="mask27_131_308" style="mask-type:alpha" maskUnits="userSpaceOnUse" x="57" y="229" width="30" height="48">
<path d="M57.8001 229.955V261.212L86.7001 276.84V245.584L57.8001 229.955Z" fill="url(#paint54_linear_131_308)"/>
</mask>
<g mask="url(#mask27_131_308)">
<path d="M57.8001 229.955V261.212L86.7001 276.84V245.584L57.8001 229.955Z" fill="url(#paint55_linear_131_308)"/>
</g>
<mask id="mask28_131_308" style="mask-type:alpha" maskUnits="userSpaceOnUse" x="86" y="276" width="59" height="64">
<path d="M86.6998 276.84V308.097L115.6 323.726L144.5 339.354V308.097L115.6 292.469L86.6998 276.84Z" fill="url(#paint56_linear_131_308)"/>
</mask>
<g mask="url(#mask28_131_308)">
<path d="M86.6998 276.84V308.097L115.6 323.726L144.5 339.354V308.097L115.6 292.469L86.6998 276.84Z" fill="url(#paint57_linear_131_308)"/>
</g>
<mask id="mask29_131_308" style="mask-type:alpha" maskUnits="userSpaceOnUse" x="202" y="558" width="87" height="204">
<path d="M260.1 589.408L231.2 573.78L202.3 558.152V589.408L231.2 605.037V636.294L260.1 651.923V761.321H289V636.294L260.1 620.665V589.408Z" fill="url(#paint58_linear_131_308)"/>
</mask>
<g mask="url(#mask29_131_308)">
<path d="M260.1 589.408L231.2 573.78L202.3 558.152V589.408L231.2 605.037V636.294L260.1 651.923V761.321H289V636.294L260.1 620.665V589.408Z" fill="url(#paint59_linear_131_308)"/>
</g>
<mask id="mask30_131_308" style="mask-type:alpha" maskUnits="userSpaceOnUse" x="0" y="229" width="116" height="283">
<path d="M57.8 417.496L86.7 433.125V495.638L115.6 511.267V354.982L86.7 339.354L57.8 323.726V292.469L28.9 276.84V245.584L0 229.955V323.726V448.753L28.9 433.125L57.8 417.496Z" fill="url(#paint60_linear_131_308)"/>
</mask>
<g mask="url(#mask30_131_308)">
<path d="M57.8 417.496L86.7 433.125V495.638L115.6 511.267V354.982L86.7 339.354L57.8 323.726V292.469L28.9 276.84V245.584L0 229.955V323.726V448.753L28.9 433.125L57.8 417.496Z" fill="url(#paint61_linear_131_308)"/>
</g>
<mask id="mask31_131_308" style="mask-type:alpha" maskUnits="userSpaceOnUse" x="173" y="605" width="30" height="47">
<path d="M173.4 605.037V636.294L202.3 651.923V620.665L173.4 605.037Z" fill="url(#paint62_linear_131_308)"/>
</mask>
<g mask="url(#mask31_131_308)">
<path d="M173.4 605.037V636.294L202.3 651.923V620.665L173.4 605.037Z" fill="url(#paint63_linear_131_308)"/>
</g>
<mask id="mask32_131_308" style="mask-type:alpha" maskUnits="userSpaceOnUse" x="202" y="651" width="30" height="111">
<path d="M202.3 761.321H231.2V730.064V667.551L202.3 651.923V761.321Z" fill="url(#paint64_linear_131_308)"/>
</mask>
<g mask="url(#mask32_131_308)">
<path d="M202.3 761.321H231.2V730.064V667.551L202.3 651.923V761.321Z" fill="url(#paint65_linear_131_308)"/>
</g>
<mask id="mask33_131_308" style="mask-type:alpha" maskUnits="userSpaceOnUse" x="86" y="526" width="59" height="95">
<path d="M115.6 542.523L86.6998 526.895V620.665L115.6 605.037L144.5 620.665V589.408L115.6 573.78V542.523Z" fill="url(#paint66_linear_131_308)"/>
</mask>
<g mask="url(#mask33_131_308)">
<path d="M115.6 542.523L86.6998 526.895V620.665L115.6 605.037L144.5 620.665V589.408L115.6 573.78V542.523Z" fill="url(#paint67_linear_131_308)"/>
</g>
<mask id="mask34_131_308" style="mask-type:alpha" maskUnits="userSpaceOnUse" x="0" y="448" width="29" height="95">
<path d="M28.9 526.895V464.382L0 448.753V542.523L28.9 526.895Z" fill="url(#paint68_linear_131_308)"/>
</mask>
<g mask="url(#mask34_131_308)">
<path d="M28.9 526.895V464.382L0 448.753V542.523L28.9 526.895Z" fill="url(#paint69_linear_131_308)"/>
</g>
<mask id="mask35_131_308" style="mask-type:alpha" maskUnits="userSpaceOnUse" x="86" y="620" width="30" height="48">
<path d="M115.6 667.551V636.294L86.6998 620.665V651.923L115.6 667.551Z" fill="url(#paint70_linear_131_308)"/>
</mask>
<g mask="url(#mask35_131_308)">
<path d="M115.6 667.551V636.294L86.6998 620.665V651.923L115.6 667.551Z" fill="url(#paint71_linear_131_308)"/>
</g>
<mask id="mask36_131_308" style="mask-type:alpha" maskUnits="userSpaceOnUse" x="115" y="667" width="30" height="95">
<path d="M115.6 761.321H144.5V714.436V683.178L115.6 667.551V698.807V761.321Z" fill="url(#paint72_linear_131_308)"/>
</mask>
<g mask="url(#mask36_131_308)">
<path d="M115.6 761.321H144.5V714.436V683.178L115.6 667.551V698.807V761.321Z" fill="url(#paint73_linear_131_308)"/>
</g>
<mask id="mask37_131_308" style="mask-type:alpha" maskUnits="userSpaceOnUse" x="0" y="542" width="29" height="95">
<path d="M28.9 620.665V558.152L0 542.523V636.294L28.9 620.665Z" fill="url(#paint74_linear_131_308)"/>
</mask>
<g mask="url(#mask37_131_308)">
<path d="M28.9 620.665V558.152L0 542.523V636.294L28.9 620.665Z" fill="url(#paint75_linear_131_308)"/>
</g>
<mask id="mask38_131_308" style="mask-type:alpha" maskUnits="userSpaceOnUse" x="0" y="636" width="58" height="126">
<path d="M0 761.321H28.9H57.8V698.807L28.9 683.178V651.923L0 636.294V698.807V761.321Z" fill="url(#paint76_linear_131_308)"/>
</mask>
<g mask="url(#mask38_131_308)">
<path d="M0 761.321H28.9H57.8V698.807L28.9 683.178V651.923L0 636.294V698.807V761.321Z" fill="url(#paint77_linear_131_308)"/>
</g>
</g>
<defs>
<linearGradient id="paint0_linear_131_308" x1="1314.95" y1="1.94906" x2="1314.95" y2="761.47" gradientUnits="userSpaceOnUse">
<stop stop-color="#4D4D4D"/>
<stop offset="0.5135"/>
<stop offset="1" stop-color="#4D4D4D"/>
</linearGradient>
<linearGradient id="paint1_linear_131_308" x1="1314.95" y1="1.94906" x2="1314.95" y2="761.47" gradientUnits="userSpaceOnUse">
<stop/>
<stop offset="0.5135"/>
<stop offset="1"/>
</linearGradient>
<linearGradient id="paint2_linear_131_308" x1="1387.2" y1="1.94813" x2="1387.2" y2="761.47" gradientUnits="userSpaceOnUse">
<stop stop-color="#4D4D4D"/>
<stop offset="0.5135"/>
<stop offset="1" stop-color="#4D4D4D"/>
</linearGradient>
<linearGradient id="paint3_linear_131_308" x1="1387.2" y1="1.94813" x2="1387.2" y2="761.47" gradientUnits="userSpaceOnUse">
<stop/>
<stop offset="0.5135"/>
<stop offset="1"/>
</linearGradient>
<linearGradient id="paint4_linear_131_308" x1="1372.75" y1="1.95206" x2="1372.75" y2="761.47" gradientUnits="userSpaceOnUse">
<stop stop-color="#4D4D4D"/>
<stop offset="0.5135"/>
<stop offset="1" stop-color="#4D4D4D"/>
</linearGradient>
<linearGradient id="paint5_linear_131_308" x1="1372.75" y1="1.95206" x2="1372.75" y2="761.47" gradientUnits="userSpaceOnUse">
<stop/>
<stop offset="0.5135"/>
<stop offset="1"/>
</linearGradient>
<linearGradient id="paint6_linear_131_308" x1="1228.25" y1="1.95118" x2="1228.25" y2="761.473" gradientUnits="userSpaceOnUse">
<stop stop-color="#4D4D4D"/>
<stop offset="0.5135"/>
<stop offset="1" stop-color="#4D4D4D"/>
</linearGradient>
<linearGradient id="paint7_linear_131_308" x1="1228.25" y1="1.95118" x2="1228.25" y2="761.473" gradientUnits="userSpaceOnUse">
<stop/>
<stop offset="0.5135"/>
<stop offset="1"/>
</linearGradient>
<linearGradient id="paint8_linear_131_308" x1="1199.35" y1="1.9509" x2="1199.35" y2="761.473" gradientUnits="userSpaceOnUse">
<stop stop-color="#4D4D4D"/>
<stop offset="0.5135"/>
<stop offset="1" stop-color="#4D4D4D"/>
</linearGradient>
<linearGradient id="paint9_linear_131_308" x1="1199.35" y1="1.9509" x2="1199.35" y2="761.473" gradientUnits="userSpaceOnUse">
<stop/>
<stop offset="0.5135"/>
<stop offset="1"/>
</linearGradient>
<linearGradient id="paint10_linear_131_308" x1="1040.4" y1="1.952" x2="1040.4" y2="761.471" gradientUnits="userSpaceOnUse">
<stop stop-color="#4D4D4D"/>
<stop offset="0.5135"/>
<stop offset="1" stop-color="#4D4D4D"/>
</linearGradient>
<linearGradient id="paint11_linear_131_308" x1="1040.4" y1="1.952" x2="1040.4" y2="761.471" gradientUnits="userSpaceOnUse">
<stop/>
<stop offset="0.5135"/>
<stop offset="1"/>
</linearGradient>
<linearGradient id="paint12_linear_131_308" x1="1314.95" y1="1.95008" x2="1314.95" y2="761.471" gradientUnits="userSpaceOnUse">
<stop stop-color="#4D4D4D"/>
<stop offset="0.5135"/>
<stop offset="1" stop-color="#4D4D4D"/>
</linearGradient>
<linearGradient id="paint13_linear_131_308" x1="1314.95" y1="1.95008" x2="1314.95" y2="761.471" gradientUnits="userSpaceOnUse">
<stop/>
<stop offset="0.5135"/>
<stop offset="1"/>
</linearGradient>
<linearGradient id="paint14_linear_131_308" x1="1257.15" y1="1.95008" x2="1257.15" y2="761.471" gradientUnits="userSpaceOnUse">
<stop stop-color="#4D4D4D"/>
<stop offset="0.5135"/>
<stop offset="1" stop-color="#4D4D4D"/>
</linearGradient>
<linearGradient id="paint15_linear_131_308" x1="1257.15" y1="1.95008" x2="1257.15" y2="761.471" gradientUnits="userSpaceOnUse">
<stop/>
<stop offset="0.5135"/>
<stop offset="1"/>
</linearGradient>
<linearGradient id="paint16_linear_131_308" x1="1141.55" y1="1.95346" x2="1141.55" y2="761.47" gradientUnits="userSpaceOnUse">
<stop stop-color="#4D4D4D"/>
<stop offset="0.5135"/>
<stop offset="1" stop-color="#4D4D4D"/>
</linearGradient>
<linearGradient id="paint17_linear_131_308" x1="1141.55" y1="1.95346" x2="1141.55" y2="761.47" gradientUnits="userSpaceOnUse">
<stop/>
<stop offset="0.5135"/>
<stop offset="1"/>
</linearGradient>
<linearGradient id="paint18_linear_131_308" x1="1170.45" y1="1.94538" x2="1170.45" y2="761.468" gradientUnits="userSpaceOnUse">
<stop stop-color="#4D4D4D"/>
<stop offset="0.5135"/>
<stop offset="1" stop-color="#4D4D4D"/>
</linearGradient>
<linearGradient id="paint19_linear_131_308" x1="1170.45" y1="1.94538" x2="1170.45" y2="761.468" gradientUnits="userSpaceOnUse">
<stop/>
<stop offset="0.5135"/>
<stop offset="1"/>
</linearGradient>
<linearGradient id="paint20_linear_131_308" x1="1025.95" y1="1.9509" x2="1025.95" y2="761.473" gradientUnits="userSpaceOnUse">
<stop stop-color="#4D4D4D"/>
<stop offset="0.5135"/>
<stop offset="1" stop-color="#4D4D4D"/>
</linearGradient>
<linearGradient id="paint21_linear_131_308" x1="1025.95" y1="1.9509" x2="1025.95" y2="761.473" gradientUnits="userSpaceOnUse">
<stop/>
<stop offset="0.5135"/>
<stop offset="1"/>
</linearGradient>
<linearGradient id="paint22_linear_131_308" x1="1025.95" y1="1.96081" x2="1025.95" y2="761.471" gradientUnits="userSpaceOnUse">
<stop stop-color="#4D4D4D"/>
<stop offset="0.5135"/>
<stop offset="1" stop-color="#4D4D4D"/>
</linearGradient>
<linearGradient id="paint23_linear_131_308" x1="1025.95" y1="1.96081" x2="1025.95" y2="761.471" gradientUnits="userSpaceOnUse">
<stop/>
<stop offset="0.5135"/>
<stop offset="1"/>
</linearGradient>
<linearGradient id="paint24_linear_131_308" x1="939.25" y1="1.95118" x2="939.25" y2="761.473" gradientUnits="userSpaceOnUse">
<stop stop-color="#4D4D4D"/>
<stop offset="0.5135"/>
<stop offset="1" stop-color="#4D4D4D"/>
</linearGradient>
<linearGradient id="paint25_linear_131_308" x1="939.25" y1="1.95118" x2="939.25" y2="761.473" gradientUnits="userSpaceOnUse">
<stop/>
<stop offset="0.5135"/>
<stop offset="1"/>
</linearGradient>
<linearGradient id="paint26_linear_131_308" x1="939.25" y1="1.94871" x2="939.25" y2="761.47" gradientUnits="userSpaceOnUse">
<stop stop-color="#4D4D4D"/>
<stop offset="0.5135"/>
<stop offset="1" stop-color="#4D4D4D"/>
</linearGradient>
<linearGradient id="paint27_linear_131_308" x1="939.25" y1="1.94871" x2="939.25" y2="761.47" gradientUnits="userSpaceOnUse">
<stop/>
<stop offset="0.5135"/>
<stop offset="1"/>
</linearGradient>
<linearGradient id="paint28_linear_131_308" x1="852.55" y1="1.95142" x2="852.55" y2="761.473" gradientUnits="userSpaceOnUse">
<stop stop-color="#4D4D4D"/>
<stop offset="0.5135"/>
<stop offset="1" stop-color="#4D4D4D"/>
</linearGradient>
<linearGradient id="paint29_linear_131_308" x1="852.549" y1="1.95145" x2="852.549" y2="761.473" gradientUnits="userSpaceOnUse">
<stop/>
<stop offset="0.5135"/>
<stop offset="1"/>
</linearGradient>
<linearGradient id="paint30_linear_131_308" x1="794.75" y1="1.94906" x2="794.75" y2="761.47" gradientUnits="userSpaceOnUse">
<stop stop-color="#4D4D4D"/>
<stop offset="0.5135"/>
<stop offset="1" stop-color="#4D4D4D"/>
</linearGradient>
<linearGradient id="paint31_linear_131_308" x1="794.75" y1="1.94906" x2="794.75" y2="761.47" gradientUnits="userSpaceOnUse">
<stop/>
<stop offset="0.5135"/>
<stop offset="1"/>
</linearGradient>
<linearGradient id="paint32_linear_131_308" x1="823.65" y1="1.94874" x2="823.65" y2="761.47" gradientUnits="userSpaceOnUse">
<stop stop-color="#4D4D4D"/>
<stop offset="0.5135"/>
<stop offset="1" stop-color="#4D4D4D"/>
</linearGradient>
<linearGradient id="paint33_linear_131_308" x1="823.65" y1="1.94874" x2="823.65" y2="761.47" gradientUnits="userSpaceOnUse">
<stop/>
<stop offset="0.5135"/>
<stop offset="1"/>
</linearGradient>
<linearGradient id="paint34_linear_131_308" x1="794.75" y1="1.96081" x2="794.75" y2="761.471" gradientUnits="userSpaceOnUse">
<stop stop-color="#4D4D4D"/>
<stop offset="0.5135"/>
<stop offset="1" stop-color="#4D4D4D"/>
</linearGradient>
<linearGradient id="paint35_linear_131_308" x1="794.75" y1="1.96081" x2="794.75" y2="761.471" gradientUnits="userSpaceOnUse">
<stop/>
<stop offset="0.5135"/>
<stop offset="1"/>
</linearGradient>
<linearGradient id="paint36_linear_131_308" x1="736.95" y1="1.95008" x2="736.95" y2="761.471" gradientUnits="userSpaceOnUse">
<stop stop-color="#4D4D4D"/>
<stop offset="0.5135"/>
<stop offset="1" stop-color="#4D4D4D"/>
</linearGradient>
<linearGradient id="paint37_linear_131_308" x1="736.95" y1="1.95008" x2="736.95" y2="761.471" gradientUnits="userSpaceOnUse">
<stop/>
<stop offset="0.5135"/>
<stop offset="1"/>
</linearGradient>
<linearGradient id="paint38_linear_131_308" x1="679.15" y1="1.95346" x2="679.15" y2="761.47" gradientUnits="userSpaceOnUse">
<stop stop-color="#4D4D4D"/>
<stop offset="0.5135"/>
<stop offset="1" stop-color="#4D4D4D"/>
</linearGradient>
<linearGradient id="paint39_linear_131_308" x1="679.15" y1="1.95346" x2="679.15" y2="761.47" gradientUnits="userSpaceOnUse">
<stop/>
<stop offset="0.5135"/>
<stop offset="1"/>
</linearGradient>
<linearGradient id="paint40_linear_131_308" x1="606.9" y1="1.94995" x2="606.9" y2="761.471" gradientUnits="userSpaceOnUse">
<stop stop-color="#4D4D4D"/>
<stop offset="0.5135"/>
<stop offset="1" stop-color="#4D4D4D"/>
</linearGradient>
<linearGradient id="paint41_linear_131_308" x1="606.9" y1="1.94995" x2="606.9" y2="761.471" gradientUnits="userSpaceOnUse">
<stop/>
<stop offset="0.5135"/>
<stop offset="1"/>
</linearGradient>
<linearGradient id="paint42_linear_131_308" x1="505.75" y1="1.94866" x2="505.75" y2="761.47" gradientUnits="userSpaceOnUse">
<stop stop-color="#4D4D4D"/>
<stop offset="0.5135"/>
<stop offset="1" stop-color="#4D4D4D"/>
</linearGradient>
<linearGradient id="paint43_linear_131_308" x1="505.75" y1="1.94866" x2="505.75" y2="761.47" gradientUnits="userSpaceOnUse">
<stop/>
<stop offset="0.5135"/>
<stop offset="1"/>
</linearGradient>
<linearGradient id="paint44_linear_131_308" x1="476.85" y1="1.95151" x2="476.85" y2="761.471" gradientUnits="userSpaceOnUse">
<stop stop-color="#4D4D4D"/>
<stop offset="0.5135"/>
<stop offset="1" stop-color="#4D4D4D"/>
</linearGradient>
<linearGradient id="paint45_linear_131_308" x1="476.851" y1="1.95151" x2="476.851" y2="761.471" gradientUnits="userSpaceOnUse">
<stop/>
<stop offset="0.5135"/>
<stop offset="1"/>
</linearGradient>
<linearGradient id="paint46_linear_131_308" x1="505.75" y1="1.96081" x2="505.75" y2="761.471" gradientUnits="userSpaceOnUse">
<stop stop-color="#4D4D4D"/>
<stop offset="0.5135"/>
<stop offset="1" stop-color="#4D4D4D"/>
</linearGradient>
<linearGradient id="paint47_linear_131_308" x1="505.75" y1="1.96081" x2="505.75" y2="761.471" gradientUnits="userSpaceOnUse">
<stop/>
<stop offset="0.5135"/>
<stop offset="1"/>
</linearGradient>
<linearGradient id="paint48_linear_131_308" x1="361.25" y1="1.94953" x2="361.25" y2="761.472" gradientUnits="userSpaceOnUse">
<stop stop-color="#4D4D4D"/>
<stop offset="0.5135"/>
<stop offset="1" stop-color="#4D4D4D"/>
</linearGradient>
<linearGradient id="paint49_linear_131_308" x1="361.25" y1="1.94953" x2="361.25" y2="761.472" gradientUnits="userSpaceOnUse">
<stop/>
<stop offset="0.5135"/>
<stop offset="1"/>
</linearGradient>
<linearGradient id="paint50_linear_131_308" x1="303.449" y1="1.94953" x2="303.449" y2="761.472" gradientUnits="userSpaceOnUse">
<stop stop-color="#4D4D4D"/>
<stop offset="0.5135"/>
<stop offset="1" stop-color="#4D4D4D"/>
</linearGradient>
<linearGradient id="paint51_linear_131_308" x1="303.449" y1="1.94953" x2="303.449" y2="761.472" gradientUnits="userSpaceOnUse">
<stop/>
<stop offset="0.5135"/>
<stop offset="1"/>
</linearGradient>
<linearGradient id="paint52_linear_131_308" x1="361.25" y1="1.94994" x2="361.25" y2="761.471" gradientUnits="userSpaceOnUse">
<stop stop-color="#4D4D4D"/>
<stop offset="0.5135"/>
<stop offset="1" stop-color="#4D4D4D"/>
</linearGradient>
<linearGradient id="paint53_linear_131_308" x1="361.25" y1="1.94994" x2="361.25" y2="761.471" gradientUnits="userSpaceOnUse">
<stop/>
<stop offset="0.5135"/>
<stop offset="1"/>
</linearGradient>
<linearGradient id="paint54_linear_131_308" x1="72.2501" y1="1.94927" x2="72.2501" y2="761.471" gradientUnits="userSpaceOnUse">
<stop stop-color="#4D4D4D"/>
<stop offset="0.5135"/>
<stop offset="1" stop-color="#4D4D4D"/>
</linearGradient>
<linearGradient id="paint55_linear_131_308" x1="72.2501" y1="1.94927" x2="72.2501" y2="761.471" gradientUnits="userSpaceOnUse">
<stop/>
<stop offset="0.5135"/>
<stop offset="1"/>
</linearGradient>
<linearGradient id="paint56_linear_131_308" x1="115.6" y1="1.94948" x2="115.6" y2="761.473" gradientUnits="userSpaceOnUse">
<stop stop-color="#4D4D4D"/>
<stop offset="0.5135"/>
<stop offset="1" stop-color="#4D4D4D"/>
</linearGradient>
<linearGradient id="paint57_linear_131_308" x1="115.6" y1="1.94948" x2="115.6" y2="761.473" gradientUnits="userSpaceOnUse">
<stop/>
<stop offset="0.5135"/>
<stop offset="1"/>
</linearGradient>
<linearGradient id="paint58_linear_131_308" x1="245.65" y1="1.95096" x2="245.65" y2="761.47" gradientUnits="userSpaceOnUse">
<stop stop-color="#4D4D4D"/>
<stop offset="0.5135"/>
<stop offset="1" stop-color="#4D4D4D"/>
</linearGradient>
<linearGradient id="paint59_linear_131_308" x1="245.65" y1="1.95096" x2="245.65" y2="761.47" gradientUnits="userSpaceOnUse">
<stop/>
<stop offset="0.5135"/>
<stop offset="1"/>
</linearGradient>
<linearGradient id="paint60_linear_131_308" x1="57.8002" y1="1.94884" x2="57.8002" y2="761.471" gradientUnits="userSpaceOnUse">
<stop stop-color="#4D4D4D"/>
<stop offset="0.5135"/>
<stop offset="1" stop-color="#4D4D4D"/>
</linearGradient>
<linearGradient id="paint61_linear_131_308" x1="57.8002" y1="1.94884" x2="57.8002" y2="761.471" gradientUnits="userSpaceOnUse">
<stop/>
<stop offset="0.5135"/>
<stop offset="1"/>
</linearGradient>
<linearGradient id="paint62_linear_131_308" x1="187.85" y1="1.94811" x2="187.85" y2="761.47" gradientUnits="userSpaceOnUse">
<stop stop-color="#4D4D4D"/>
<stop offset="0.5135"/>
<stop offset="1" stop-color="#4D4D4D"/>
</linearGradient>
<linearGradient id="paint63_linear_131_308" x1="187.85" y1="1.94811" x2="187.85" y2="761.47" gradientUnits="userSpaceOnUse">
<stop/>
<stop offset="0.5135"/>
<stop offset="1"/>
</linearGradient>
<linearGradient id="paint64_linear_131_308" x1="216.75" y1="1.95203" x2="216.75" y2="761.47" gradientUnits="userSpaceOnUse">
<stop stop-color="#4D4D4D"/>
<stop offset="0.5135"/>
<stop offset="1" stop-color="#4D4D4D"/>
</linearGradient>
<linearGradient id="paint65_linear_131_308" x1="216.75" y1="1.95203" x2="216.75" y2="761.47" gradientUnits="userSpaceOnUse">
<stop/>
<stop offset="0.5135"/>
<stop offset="1"/>
</linearGradient>
<linearGradient id="paint66_linear_131_308" x1="115.6" y1="1.94978" x2="115.6" y2="761.471" gradientUnits="userSpaceOnUse">
<stop stop-color="#4D4D4D"/>
<stop offset="0.5135"/>
<stop offset="1" stop-color="#4D4D4D"/>
</linearGradient>
<linearGradient id="paint67_linear_131_308" x1="115.6" y1="1.94978" x2="115.6" y2="761.471" gradientUnits="userSpaceOnUse">
<stop/>
<stop offset="0.5135"/>
<stop offset="1"/>
</linearGradient>
<linearGradient id="paint68_linear_131_308" x1="14.4498" y1="1.94904" x2="14.4498" y2="761.47" gradientUnits="userSpaceOnUse">
<stop stop-color="#4D4D4D"/>
<stop offset="0.5135"/>
<stop offset="1" stop-color="#4D4D4D"/>
</linearGradient>
<linearGradient id="paint69_linear_131_308" x1="14.4498" y1="1.94904" x2="14.4498" y2="761.47" gradientUnits="userSpaceOnUse">
<stop/>
<stop offset="0.5135"/>
<stop offset="1"/>
</linearGradient>
<linearGradient id="paint70_linear_131_308" x1="101.15" y1="1.95008" x2="101.15" y2="761.471" gradientUnits="userSpaceOnUse">
<stop stop-color="#4D4D4D"/>
<stop offset="0.5135"/>
<stop offset="1" stop-color="#4D4D4D"/>
</linearGradient>
<linearGradient id="paint71_linear_131_308" x1="101.15" y1="1.95008" x2="101.15" y2="761.471" gradientUnits="userSpaceOnUse">
<stop/>
<stop offset="0.5135"/>
<stop offset="1"/>
</linearGradient>
<linearGradient id="paint72_linear_131_308" x1="130.05" y1="1.94996" x2="130.05" y2="761.471" gradientUnits="userSpaceOnUse">
<stop stop-color="#4D4D4D"/>
<stop offset="0.5135"/>
<stop offset="1" stop-color="#4D4D4D"/>
</linearGradient>
<linearGradient id="paint73_linear_131_308" x1="130.05" y1="1.94996" x2="130.05" y2="761.471" gradientUnits="userSpaceOnUse">
<stop/>
<stop offset="0.5135"/>
<stop offset="1"/>
</linearGradient>
<linearGradient id="paint74_linear_131_308" x1="14.4498" y1="1.95036" x2="14.4498" y2="761.471" gradientUnits="userSpaceOnUse">
<stop stop-color="#4D4D4D"/>
<stop offset="0.5135"/>
<stop offset="1" stop-color="#4D4D4D"/>
</linearGradient>
<linearGradient id="paint75_linear_131_308" x1="14.4498" y1="1.95036" x2="14.4498" y2="761.471" gradientUnits="userSpaceOnUse">
<stop/>
<stop offset="0.5135"/>
<stop offset="1"/>
</linearGradient>
<linearGradient id="paint76_linear_131_308" x1="28.8999" y1="1.9486" x2="28.8999" y2="761.47" gradientUnits="userSpaceOnUse">
<stop stop-color="#4D4D4D"/>
<stop offset="0.5135"/>
<stop offset="1" stop-color="#4D4D4D"/>
</linearGradient>
<linearGradient id="paint77_linear_131_308" x1="28.8999" y1="1.9486" x2="28.8999" y2="761.47" gradientUnits="userSpaceOnUse">
<stop/>
<stop offset="0.5135"/>
<stop offset="1"/>
</linearGradient>
</defs>
</svg>
