<svg width="29" height="29" viewBox="0 0 29 29" fill="none" xmlns="http://www.w3.org/2000/svg">
<path d="M29 7.73363H27.0664V5.80055H25.1333V3.86682H23.2002V1.93374H21.2672V0H7.73299V1.93374H5.7999V3.86682H3.86667V5.80055H1.93361V7.73363H0V21.2672H1.93361V23.2002H3.86667V25.134H5.7999V27.0671H7.73299V29.0001H21.2672V27.0671H23.2002V25.134H25.1333V23.2002H27.0664V21.2672H29V7.73363Z" fill="black"/>
<path d="M25.1338 7.734H23.2007V5.80093H21.2677V3.86719H7.73351V5.80093H5.80041V7.734H3.86719V9.66708V19.3338V21.2675H5.80041V23.2006H7.73351V25.1343H21.2677V23.2006H23.2007V21.2675H25.1338V7.734Z" fill="#FFE823"/>
<path d="M7.7329 23.2012H5.7998V25.1349H7.7329V23.2012Z" fill="#F5CB11"/>
<path d="M5.79943 21.2676H3.86621V23.2007H5.79943V21.2676Z" fill="#F5CB11"/>
<path d="M3.86666 9.66699H1.93359V21.2674H3.86666V9.66699Z" fill="#F5CB11"/>
<path d="M21.2666 25.1348H7.73242V27.0678H21.2666V25.1348Z" fill="#F5CB11"/>
<path d="M23.2006 23.2012H21.2676V25.1349H23.2006V23.2012Z" fill="#F5CB11"/>
<path d="M25.1333 21.2676H23.2002V23.2007H25.1333V21.2676Z" fill="#F5CB11"/>
<path d="M27.066 19.334H25.1328V21.2677H27.066V19.334Z" fill="#F5CB11"/>
<path d="M7.7329 3.86719H5.7998V5.80093H7.7329V3.86719Z" fill="#FEFE38"/>
<path d="M5.79943 5.80078H3.86621V7.73386H5.79943V5.80078Z" fill="#FEFE38"/>
<path d="M3.86666 7.7334H1.93359V9.66647H3.86666V7.7334Z" fill="#FEFE38"/>
<path d="M21.2666 1.93359H7.73242V3.86667H21.2666V1.93359Z" fill="#FEFE38"/>
<path d="M23.2006 3.86719H21.2676V5.80093H23.2006V3.86719Z" fill="#FEFE38"/>
<path d="M25.1333 5.80078H23.2002V7.73386H25.1333V5.80078Z" fill="#FEFE38"/>
<path d="M27.066 7.7334H25.1328V19.3332H27.066V7.7334Z" fill="#FEFE38"/>
<path d="M23.2006 5.80078H21.2676V7.73386H23.2006V5.80078Z" fill="white"/>
<path d="M25.1343 7.7334H23.2012V11.6002H25.1343V7.7334Z" fill="white"/>
</svg>
